<svg xmlns="http://www.w3.org/2000/svg" data-v-423bf9ae="" viewBox="0 0 358 90" class="iconLeftSlogan"><!----><!----><!----><g data-v-423bf9ae="" id="25fed323-eecd-422f-880e-729c29470a5c" fill="white" transform="matrix(5.934717655181885,0,0,5.934717655181885,104.18399810791016,-30.3264102935791)"><path d="M2.14 15.02L4.13 15.02C6.80 15.02 8.37 13.54 8.37 10.04C8.37 6.76 6.80 5.14 4.05 5.14C3.14 5.14 1.75 5.15 0.98 5.25C1.19 5.80 1.16 6.64 1.16 7.18L1.18 14.17C1.18 14.70 1.54 15.02 2.14 15.02ZM2.83 14.41L2.81 5.75L4.05 5.75C5.73 5.75 6.54 7.08 6.54 10.15C6.54 13.26 5.73 14.41 4.05 14.41ZM11.27 15.22C11.73 15.22 12.08 14.98 12.22 14.84C12.01 14.29 11.98 13.68 11.98 13.13L11.98 5.96C11.98 5.43 11.56 5.11 11.02 5.11C10.56 5.11 10.22 5.33 10.07 5.47C10.28 6.02 10.32 6.64 10.32 7.18L10.32 14.35C10.32 14.88 10.72 15.22 11.27 15.22ZM21.11 5.85C21.10 5.47 20.87 5.14 20.33 5.14C19.89 5.14 19.64 5.19 19.40 5.29C19.50 5.40 19.56 5.59 19.56 5.75C19.56 5.92 19.52 6.09 19.42 6.33L17.60 10.30L15.64 6.05C15.39 5.50 15.13 5.14 14.48 5.14C13.90 5.14 13.47 5.47 13.30 5.64C13.58 5.92 13.82 6.29 13.93 6.51L16.18 10.95C16.27 11.10 16.35 11.27 16.46 11.41L16.46 14.35C16.46 14.88 16.86 15.22 17.42 15.22C17.86 15.22 18.21 14.98 18.35 14.84C18.14 14.29 18.12 13.68 18.12 13.13L18.10 11.41L20.72 6.87C20.93 6.54 21.11 6.13 21.11 5.85ZM28.20 13.13L28.20 10.49C28.20 8.60 27.48 7.64 25.94 7.64C24.77 7.64 23.97 8.25 23.59 9.32C23.59 8.19 23.09 7.64 22.27 7.64C21.62 7.64 21.24 8.01 21.24 8.51C21.24 8.71 21.29 8.88 21.41 9.06C21.50 8.90 21.67 8.88 21.78 8.88C22.02 8.88 22.13 9.07 22.15 9.60L22.15 14.27C22.15 14.85 22.55 15.22 23.11 15.22C23.56 15.22 23.90 14.99 24.05 14.85C23.77 14.18 23.77 13.68 23.77 11.70C23.77 9.48 24.53 8.48 25.41 8.48C26.32 8.48 26.56 9.30 26.57 10.72L26.57 14.35C26.57 14.88 26.98 15.22 27.51 15.22C27.92 15.22 28.22 15.05 28.46 14.84C28.24 14.29 28.21 13.58 28.20 13.13ZM35.62 13.06C35.31 13.72 34.59 14.17 33.57 14.17C32.38 14.17 31.57 13.57 31.44 11.79C31.93 11.84 32.40 11.86 32.86 11.86C34.71 11.86 35.92 11.12 35.92 9.73C35.92 8.34 34.72 7.64 33.15 7.64C30.88 7.64 29.67 9.09 29.67 11.42C29.67 13.86 31.01 15.22 33.12 15.22C34.40 15.22 35.38 14.73 35.73 13.83C35.94 13.34 35.80 13.15 35.62 13.06ZM33.10 8.23C33.63 8.23 34.16 8.48 34.16 9.46C34.16 11.03 32.97 11.24 31.98 11.23C31.78 11.23 31.58 11.21 31.42 11.20C31.42 9.32 32.05 8.23 33.10 8.23ZM40.89 7.64C39.98 7.64 39.37 8.15 39.05 9.18C38.99 8.15 38.50 7.64 37.73 7.64C37.07 7.64 36.69 8.01 36.69 8.51C36.69 8.71 36.75 8.88 36.86 9.06C36.96 8.90 37.13 8.88 37.24 8.88C37.48 8.88 37.60 9.07 37.60 9.60L37.60 14.22C37.60 14.83 38.05 15.16 38.56 15.16C39.03 15.16 39.35 14.94 39.51 14.81C39.23 14.13 39.23 13.64 39.23 11.70C39.23 9.44 39.75 8.43 40.43 8.43C40.87 8.43 41.09 8.69 41.09 9.20C41.09 9.56 41.05 9.79 40.84 10.14C40.98 10.30 41.24 10.40 41.58 10.39C42.17 10.37 42.63 9.88 42.63 9.20C42.63 8.22 41.90 7.64 40.89 7.64Z"/></g><!----><g data-v-423bf9ae="" id="81a393e3-c6d7-46a5-a8c2-6485d5b97f61" transform="matrix(2.8125,0,0,2.8125,0,0)" stroke="none" fill="white"><path d="M32 0H0v32h32V0zm-8.677 20.802l-2.52 2.52L16 28.125l-2.52-2.52 4.802-4.802L16 18.52l-4.802 4.802-2.52-2.52L13.48 16l-2.282-2.282-4.803 4.802L3.875 16l4.802-4.802 2.52-2.52L16 3.875l2.52 2.52-4.802 4.802L16 13.48l4.802-4.802 2.52 2.52L18.52 16l2.282 2.282 4.802-4.802 2.52 2.52-4.801 4.802z"/></g><!----><g data-v-423bf9ae="" id="9310ccbd-338c-4e01-92a7-7df2bbaf92a3" fill="white" transform="matrix(1.0832363367080688,0,0,1.0832363367080688,109.24174499511719,55.89453125)"><path d="M7.83 3.92L7.48 3.92L1.89 3.92L0.70 3.92L0.70 4.19C0.70 4.34 0.80 4.42 0.98 4.44L1.12 4.44C1.19 4.44 1.29 4.45 1.43 4.45C1.57 4.45 1.72 4.47 1.89 4.47L1.89 13.26C1.72 13.26 1.57 13.27 1.43 13.27C1.29 13.27 1.19 13.29 1.12 13.29L0.98 13.29C0.80 13.30 0.70 13.38 0.70 13.54L0.70 13.82L1.89 13.82L2.60 13.82L3.78 13.82L3.78 13.54C3.78 13.38 3.70 13.30 3.51 13.29L3.37 13.29C3.30 13.29 3.21 13.27 3.07 13.27C2.93 13.27 2.77 13.26 2.60 13.26L2.60 9.27L6.30 9.27L6.30 8.67L2.60 8.67L2.60 4.51L7.21 4.51C7.24 5.18 7.27 5.56 7.27 5.63C7.28 5.85 7.38 5.96 7.57 5.96L7.91 5.96L7.91 3.92ZM25.30 8.86C25.30 8.11 25.17 7.41 24.95 6.79C24.72 6.17 24.40 5.64 23.98 5.19C23.56 4.75 23.07 4.40 22.50 4.16C21.92 3.92 21.27 3.79 20.57 3.79C19.87 3.79 19.24 3.92 18.66 4.16C18.09 4.40 17.58 4.75 17.16 5.19C16.74 5.64 16.42 6.17 16.20 6.79C15.97 7.41 15.85 8.11 15.85 8.86C15.85 9.63 15.97 10.33 16.20 10.95C16.42 11.56 16.74 12.10 17.16 12.54C17.58 12.99 18.09 13.33 18.66 13.57C19.24 13.80 19.87 13.93 20.57 13.93C21.27 13.93 21.92 13.80 22.50 13.57C23.07 13.33 23.56 12.99 23.98 12.54C24.40 12.10 24.72 11.56 24.95 10.95C25.17 10.33 25.30 9.63 25.30 8.86ZM24.54 8.86C24.54 9.56 24.46 10.18 24.26 10.72C24.07 11.27 23.80 11.75 23.45 12.12C23.10 12.50 22.68 12.81 22.19 13.01C21.70 13.20 21.17 13.30 20.57 13.30C19.98 13.30 19.45 13.20 18.96 13.01C18.47 12.81 18.05 12.50 17.70 12.12C17.35 11.75 17.07 11.27 16.87 10.72C16.67 10.18 16.59 9.56 16.59 8.86C16.59 8.18 16.67 7.55 16.87 7.00C17.07 6.45 17.35 5.98 17.70 5.60C18.05 5.22 18.47 4.91 18.96 4.72C19.45 4.52 19.98 4.41 20.57 4.41C21.17 4.41 21.70 4.52 22.19 4.72C22.68 4.91 23.10 5.22 23.45 5.60C23.80 5.98 24.07 6.45 24.26 7.00C24.46 7.55 24.54 8.18 24.54 8.86ZM42.84 8.86C42.84 8.11 42.71 7.41 42.49 6.79C42.27 6.17 41.94 5.64 41.52 5.19C41.10 4.75 40.61 4.40 40.04 4.16C39.47 3.92 38.81 3.79 38.11 3.79C37.41 3.79 36.78 3.92 36.20 4.16C35.63 4.40 35.13 4.75 34.71 5.19C34.29 5.64 33.96 6.17 33.74 6.79C33.52 7.41 33.39 8.11 33.39 8.86C33.39 9.63 33.52 10.33 33.74 10.95C33.96 11.56 34.29 12.10 34.71 12.54C35.13 12.99 35.63 13.33 36.20 13.57C36.78 13.80 37.41 13.93 38.11 13.93C38.81 13.93 39.47 13.80 40.04 13.57C40.61 13.33 41.10 12.99 41.52 12.54C41.94 12.10 42.27 11.56 42.49 10.95C42.71 10.33 42.84 9.63 42.84 8.86ZM42.08 8.86C42.08 9.56 42 10.18 41.80 10.72C41.61 11.27 41.34 11.75 40.99 12.12C40.64 12.50 40.22 12.81 39.73 13.01C39.24 13.20 38.71 13.30 38.11 13.30C37.52 13.30 36.99 13.20 36.50 13.01C36.01 12.81 35.59 12.50 35.24 12.12C34.89 11.75 34.61 11.27 34.41 10.72C34.22 10.18 34.13 9.56 34.13 8.86C34.13 8.18 34.22 7.55 34.41 7.00C34.61 6.45 34.89 5.98 35.24 5.60C35.59 5.22 36.01 4.91 36.50 4.72C36.99 4.52 37.52 4.41 38.11 4.41C38.71 4.41 39.24 4.52 39.73 4.72C40.22 4.91 40.64 5.22 40.99 5.60C41.34 5.98 41.61 6.45 41.80 7.00C42 7.55 42.08 8.18 42.08 8.86ZM60.12 6.80C59.89 6.19 59.57 5.68 59.15 5.25C58.73 4.82 58.24 4.48 57.67 4.26C57.09 4.03 56.43 3.92 55.73 3.92L52.30 3.92L51.11 3.92L51.11 4.19C51.11 4.34 51.21 4.42 51.39 4.44L51.53 4.44C51.60 4.44 51.70 4.45 51.84 4.45C51.98 4.45 52.14 4.47 52.30 4.47L52.30 13.26C52.14 13.26 51.98 13.27 51.84 13.27C51.70 13.27 51.60 13.29 51.53 13.29L51.39 13.29C51.21 13.30 51.11 13.38 51.11 13.54L51.11 13.82L52.30 13.82L55.73 13.82C56.43 13.82 57.09 13.71 57.67 13.48C58.24 13.26 58.73 12.92 59.15 12.49C59.57 12.05 59.89 11.54 60.12 10.92C60.34 10.30 60.47 9.63 60.47 8.86C60.47 8.11 60.34 7.42 60.12 6.80ZM59.43 10.72C59.23 11.27 58.98 11.72 58.63 12.10C58.28 12.47 57.86 12.75 57.37 12.95C56.88 13.15 56.34 13.24 55.73 13.24L53.02 13.24L53.02 4.49L55.73 4.49C56.34 4.49 56.88 4.59 57.37 4.79C57.86 4.98 58.28 5.26 58.63 5.64C58.98 6.02 59.23 6.47 59.43 7.01C59.63 7.56 59.72 8.18 59.72 8.86C59.72 9.56 59.63 10.18 59.43 10.72ZM88.42 13.22L87.96 13.17L84.18 3.91L83.47 3.91L79.67 13.17L79.23 13.22C79.04 13.23 78.96 13.33 78.96 13.50L78.96 13.82L79.41 13.82L79.70 13.82L79.95 13.82L80.05 13.82L81.37 13.82L81.37 13.50C81.37 13.31 81.26 13.23 81.05 13.22C81.03 13.22 81.00 13.20 80.96 13.20C80.92 13.20 80.86 13.19 80.77 13.19C80.67 13.19 80.54 13.19 80.40 13.17L81.38 10.75L81.45 10.57L86.18 10.57L86.25 10.75L87.23 13.17C87.09 13.19 86.98 13.19 86.88 13.19C86.79 13.19 86.72 13.20 86.67 13.20C86.63 13.20 86.60 13.22 86.59 13.22C86.38 13.23 86.27 13.31 86.27 13.50L86.27 13.82L87.58 13.82L87.68 13.82L87.95 13.82L88.23 13.82L88.69 13.82L88.69 13.50C88.69 13.33 88.61 13.23 88.42 13.22ZM83.62 5.22C83.65 5.14 83.69 5.04 83.72 4.94C83.75 4.84 83.79 4.75 83.82 4.63C83.85 4.75 83.89 4.84 83.92 4.94C83.94 5.04 83.99 5.12 84.01 5.21L85.97 10.04L81.68 10.04ZM105.92 6.80C105.70 6.19 105.38 5.68 104.96 5.25C104.54 4.82 104.05 4.48 103.47 4.26C102.90 4.03 102.24 3.92 101.54 3.92L98.11 3.92L96.92 3.92L96.92 4.19C96.92 4.34 97.02 4.42 97.20 4.44L97.34 4.44C97.41 4.44 97.51 4.45 97.65 4.45C97.79 4.45 97.94 4.47 98.11 4.47L98.11 13.26C97.94 13.26 97.79 13.27 97.65 13.27C97.51 13.27 97.41 13.29 97.34 13.29L97.20 13.29C97.02 13.30 96.92 13.38 96.92 13.54L96.92 13.82L98.11 13.82L101.54 13.82C102.24 13.82 102.90 13.71 103.47 13.48C104.05 13.26 104.54 12.92 104.96 12.49C105.38 12.05 105.70 11.54 105.92 10.92C106.15 10.30 106.27 9.63 106.27 8.86C106.27 8.11 106.15 7.42 105.92 6.80ZM105.24 10.72C105.04 11.27 104.79 11.72 104.44 12.10C104.09 12.47 103.67 12.75 103.18 12.95C102.69 13.15 102.14 13.24 101.54 13.24L98.83 13.24L98.83 4.49L101.54 4.49C102.14 4.49 102.69 4.59 103.18 4.79C103.67 4.98 104.09 5.26 104.44 5.64C104.79 6.02 105.04 6.47 105.24 7.01C105.43 7.56 105.53 8.18 105.53 8.86C105.53 9.56 105.43 10.18 105.24 10.72ZM123.19 3.92L122.63 3.92L122.60 3.92L121.13 3.92L121.13 4.19C121.13 4.34 121.21 4.42 121.39 4.44L121.52 4.44C121.58 4.44 121.66 4.45 121.79 4.45C121.91 4.45 122.05 4.47 122.21 4.47L119 12.32C118.92 12.53 118.85 12.75 118.79 13.01C118.73 12.77 118.66 12.53 118.58 12.32L115.35 4.47C115.50 4.47 115.65 4.45 115.78 4.45C115.91 4.45 115.99 4.44 116.05 4.44L116.16 4.44C116.34 4.42 116.44 4.34 116.44 4.19L116.44 3.92L114.94 3.92L114.38 3.92L113.78 3.92L113.78 4.19C113.78 4.34 113.88 4.42 114.06 4.44L114.16 4.44C114.20 4.44 114.27 4.45 114.34 4.45C114.41 4.45 114.51 4.47 114.60 4.47L118.47 13.82L119.10 13.82L122.96 4.47C123.06 4.47 123.16 4.45 123.23 4.45C123.30 4.45 123.37 4.44 123.41 4.44L123.49 4.44C123.68 4.42 123.77 4.34 123.77 4.19L123.77 3.92ZM134.64 4.44C134.82 4.42 134.90 4.34 134.90 4.19L134.90 3.91L133.73 3.91L133.01 3.91L131.82 3.91L131.82 4.19C131.82 4.34 131.92 4.42 132.10 4.44L132.24 4.44C132.31 4.44 132.41 4.45 132.55 4.45C132.69 4.45 132.85 4.47 133.01 4.47L133.01 13.26C132.85 13.26 132.69 13.27 132.55 13.27C132.41 13.27 132.31 13.29 132.24 13.29L132.10 13.29C131.92 13.30 131.82 13.38 131.82 13.54L131.82 13.82L133.01 13.82L133.73 13.82L134.90 13.82L134.90 13.54C134.90 13.38 134.82 13.30 134.64 13.29L134.50 13.29C134.43 13.29 134.33 13.27 134.19 13.27C134.05 13.27 133.90 13.26 133.73 13.26L133.73 4.47C133.90 4.47 134.05 4.45 134.19 4.45C134.33 4.45 134.43 4.44 134.50 4.44ZM148.97 9.91C148.83 9.65 148.64 9.39 148.40 9.21C148.16 9.03 147.91 8.88 147.62 8.75C147.32 8.62 147 8.51 146.69 8.41C146.38 8.32 146.08 8.20 145.78 8.11C145.49 7.99 145.22 7.87 144.98 7.71C144.75 7.56 144.56 7.38 144.42 7.15C144.28 6.93 144.20 6.65 144.20 6.31C144.20 6.06 144.26 5.82 144.35 5.59C144.45 5.35 144.59 5.15 144.77 4.97C144.96 4.79 145.18 4.65 145.46 4.55C145.74 4.45 146.05 4.40 146.41 4.40C147.08 4.40 147.70 4.51 148.26 4.75C148.30 5.54 148.33 5.99 148.33 6.06C148.34 6.29 148.43 6.41 148.62 6.41L148.96 6.41L148.96 4.38C148.08 4.00 147.24 3.81 146.41 3.81C145.95 3.81 145.54 3.88 145.18 4.02C144.82 4.16 144.52 4.34 144.28 4.58C144.05 4.82 143.85 5.08 143.72 5.39C143.60 5.70 143.54 6.02 143.54 6.36C143.54 6.78 143.61 7.14 143.75 7.42C143.89 7.70 144.09 7.92 144.33 8.12C144.56 8.32 144.82 8.46 145.11 8.58C145.40 8.71 145.73 8.82 146.03 8.92C146.34 9.02 146.64 9.11 146.94 9.21C147.24 9.31 147.50 9.45 147.74 9.60C147.98 9.76 148.16 9.94 148.30 10.16C148.44 10.39 148.51 10.68 148.51 11.03C148.51 11.35 148.46 11.66 148.34 11.94C148.23 12.22 148.08 12.46 147.87 12.67C147.66 12.88 147.39 13.05 147.08 13.16C146.78 13.29 146.43 13.33 146.03 13.33C145.25 13.33 144.59 13.20 144.06 12.95C144.05 12.75 144.05 12.54 144.03 12.32C144.02 12.10 144.02 11.91 144.00 11.76C143.99 11.61 143.99 11.52 143.99 11.51C143.98 11.28 143.88 11.17 143.68 11.17L143.35 11.17L143.35 13.02L143.35 13.20L143.35 13.38C144.20 13.75 145.08 13.93 146.01 13.93C146.51 13.93 146.96 13.85 147.35 13.69C147.74 13.54 148.08 13.31 148.34 13.05C148.61 12.78 148.83 12.46 148.97 12.10C149.11 11.73 149.18 11.34 149.18 10.92C149.18 10.51 149.11 10.18 148.97 9.91ZM166.71 8.86C166.71 8.11 166.59 7.41 166.36 6.79C166.14 6.17 165.82 5.64 165.40 5.19C164.98 4.75 164.49 4.40 163.91 4.16C163.34 3.92 162.68 3.79 161.98 3.79C161.28 3.79 160.65 3.92 160.08 4.16C159.50 4.40 159.00 4.75 158.58 5.19C158.16 5.64 157.84 6.17 157.61 6.79C157.39 7.41 157.26 8.11 157.26 8.86C157.26 9.63 157.39 10.33 157.61 10.95C157.84 11.56 158.16 12.10 158.58 12.54C159.00 12.99 159.50 13.33 160.08 13.57C160.65 13.80 161.28 13.93 161.98 13.93C162.68 13.93 163.34 13.80 163.91 13.57C164.49 13.33 164.98 12.99 165.40 12.54C165.82 12.10 166.14 11.56 166.36 10.95C166.59 10.33 166.71 9.63 166.71 8.86ZM165.96 8.86C165.96 9.56 165.87 10.18 165.68 10.72C165.48 11.27 165.21 11.75 164.86 12.12C164.51 12.50 164.09 12.81 163.60 13.01C163.11 13.20 162.58 13.30 161.98 13.30C161.39 13.30 160.86 13.20 160.37 13.01C159.88 12.81 159.46 12.50 159.11 12.12C158.76 11.75 158.48 11.27 158.28 10.72C158.09 10.18 158.00 9.56 158.00 8.86C158.00 8.18 158.09 7.55 158.28 7.00C158.48 6.45 158.76 5.98 159.11 5.60C159.46 5.22 159.88 4.91 160.37 4.72C160.86 4.52 161.39 4.41 161.98 4.41C162.58 4.41 163.11 4.52 163.60 4.72C164.09 4.91 164.51 5.22 164.86 5.60C165.21 5.98 165.48 6.45 165.68 7.00C165.87 7.55 165.96 8.18 165.96 8.86ZM182.98 13.29L182.88 13.29L182.70 13.29C182.62 13.29 182.53 13.27 182.45 13.27L179.48 9.53C179.40 9.42 179.28 9.32 179.17 9.25C179.61 9.21 180.00 9.11 180.35 8.96C180.70 8.81 180.98 8.61 181.23 8.37C181.47 8.13 181.66 7.85 181.79 7.55C181.92 7.24 181.99 6.89 181.99 6.51C181.99 5.66 181.71 5.03 181.15 4.58C180.59 4.14 179.73 3.92 178.58 3.92L176.18 3.92L175 3.92L175 4.19C175 4.34 175.08 4.42 175.27 4.44L175.41 4.44C175.48 4.44 175.57 4.45 175.71 4.45C175.85 4.45 176.01 4.47 176.18 4.47L176.18 13.26C176.01 13.26 175.85 13.27 175.71 13.27C175.57 13.27 175.48 13.29 175.41 13.29L175.27 13.29C175.08 13.30 174.99 13.38 174.99 13.54L174.99 13.82L176.18 13.82L176.89 13.82L178.07 13.82L178.07 13.54C178.07 13.38 177.97 13.30 177.79 13.29L177.65 13.29C177.58 13.29 177.48 13.27 177.34 13.27C177.20 13.27 177.06 13.26 176.89 13.26L176.89 9.34L178.07 9.34C178.26 9.34 178.40 9.35 178.49 9.39C178.57 9.44 178.65 9.52 178.74 9.62L181.92 13.64C181.97 13.71 182.01 13.75 182.07 13.78C182.13 13.80 182.20 13.82 182.27 13.82L182.34 13.82L182.88 13.82L183.25 13.82L183.25 13.54C183.25 13.38 183.16 13.30 182.98 13.29ZM178.49 8.81L176.89 8.81L176.89 4.48L178.58 4.48C179.47 4.48 180.14 4.66 180.60 5.00C181.06 5.33 181.29 5.87 181.29 6.57C181.29 6.92 181.23 7.21 181.10 7.49C180.98 7.77 180.78 7.99 180.54 8.19C180.31 8.39 180.01 8.55 179.66 8.65C179.31 8.75 178.92 8.81 178.49 8.81Z"/></g></svg>