<svg data-v-423bf9ae="" xmlns="http://www.w3.org/2000/svg" viewBox="0 0 247.1810030351556 60" class="font"><!----><!----><!----><g data-v-423bf9ae="" id="4785dcf0-ccaf-4db8-a72d-adab817d89dd" fill="black" transform="matrix(5.934717655181885,0,0,5.934717655181885,-5.816020488739014,-30.3264102935791)"><path d="M2.14 15.02L4.13 15.02C6.80 15.02 8.37 13.54 8.37 10.04C8.37 6.76 6.80 5.14 4.05 5.14C3.14 5.14 1.75 5.15 0.98 5.25C1.19 5.80 1.16 6.64 1.16 7.18L1.18 14.17C1.18 14.70 1.54 15.02 2.14 15.02ZM2.83 14.41L2.81 5.75L4.05 5.75C5.73 5.75 6.54 7.08 6.54 10.15C6.54 13.26 5.73 14.41 4.05 14.41ZM11.27 15.22C11.73 15.22 12.08 14.98 12.22 14.84C12.01 14.29 11.98 13.68 11.98 13.13L11.98 5.96C11.98 5.43 11.56 5.11 11.02 5.11C10.56 5.11 10.22 5.33 10.07 5.47C10.28 6.02 10.32 6.64 10.32 7.18L10.32 14.35C10.32 14.88 10.72 15.22 11.27 15.22ZM21.11 5.85C21.10 5.47 20.87 5.14 20.33 5.14C19.89 5.14 19.64 5.19 19.40 5.29C19.50 5.40 19.56 5.59 19.56 5.75C19.56 5.92 19.52 6.09 19.42 6.33L17.60 10.30L15.64 6.05C15.39 5.50 15.13 5.14 14.48 5.14C13.90 5.14 13.47 5.47 13.30 5.64C13.58 5.92 13.82 6.29 13.93 6.51L16.18 10.95C16.27 11.10 16.35 11.27 16.46 11.41L16.46 14.35C16.46 14.88 16.86 15.22 17.42 15.22C17.86 15.22 18.21 14.98 18.35 14.84C18.14 14.29 18.12 13.68 18.12 13.13L18.10 11.41L20.72 6.87C20.93 6.54 21.11 6.13 21.11 5.85ZM28.20 13.13L28.20 10.49C28.20 8.60 27.48 7.64 25.94 7.64C24.77 7.64 23.97 8.25 23.59 9.32C23.59 8.19 23.09 7.64 22.27 7.64C21.62 7.64 21.24 8.01 21.24 8.51C21.24 8.71 21.29 8.88 21.41 9.06C21.50 8.90 21.67 8.88 21.78 8.88C22.02 8.88 22.13 9.07 22.15 9.60L22.15 14.27C22.15 14.85 22.55 15.22 23.11 15.22C23.56 15.22 23.90 14.99 24.05 14.85C23.77 14.18 23.77 13.68 23.77 11.70C23.77 9.48 24.53 8.48 25.41 8.48C26.32 8.48 26.56 9.30 26.57 10.72L26.57 14.35C26.57 14.88 26.98 15.22 27.51 15.22C27.92 15.22 28.22 15.05 28.46 14.84C28.24 14.29 28.21 13.58 28.20 13.13ZM35.62 13.06C35.31 13.72 34.59 14.17 33.57 14.17C32.38 14.17 31.57 13.57 31.44 11.79C31.93 11.84 32.40 11.86 32.86 11.86C34.71 11.86 35.92 11.12 35.92 9.73C35.92 8.34 34.72 7.64 33.15 7.64C30.88 7.64 29.67 9.09 29.67 11.42C29.67 13.86 31.01 15.22 33.12 15.22C34.40 15.22 35.38 14.73 35.73 13.83C35.94 13.34 35.80 13.15 35.62 13.06ZM33.10 8.23C33.63 8.23 34.16 8.48 34.16 9.46C34.16 11.03 32.97 11.24 31.98 11.23C31.78 11.23 31.58 11.21 31.42 11.20C31.42 9.32 32.05 8.23 33.10 8.23ZM40.89 7.64C39.98 7.64 39.37 8.15 39.05 9.18C38.99 8.15 38.50 7.64 37.73 7.64C37.07 7.64 36.69 8.01 36.69 8.51C36.69 8.71 36.75 8.88 36.86 9.06C36.96 8.90 37.13 8.88 37.24 8.88C37.48 8.88 37.60 9.07 37.60 9.60L37.60 14.22C37.60 14.83 38.05 15.16 38.56 15.16C39.03 15.16 39.35 14.94 39.51 14.81C39.23 14.13 39.23 13.64 39.23 11.70C39.23 9.44 39.75 8.43 40.43 8.43C40.87 8.43 41.09 8.69 41.09 9.20C41.09 9.56 41.05 9.79 40.84 10.14C40.98 10.30 41.24 10.40 41.58 10.39C42.17 10.37 42.63 9.88 42.63 9.20C42.63 8.22 41.90 7.64 40.89 7.64Z"></path></g><!----><!----></svg>